<svg id="SVG" xmlns="http://www.w3.org/2000/svg" width="2200" height="1600"><defs><linearGradient id="linear-gradient" x1="564" y1="1552" x2="564" y2="800" gradientUnits="userSpaceOnUse"><stop offset="0" stop-color="#1e3c72"/><stop offset="1" stop-color="#2a5298"/></linearGradient><style>.cls-2,.cls-5{fill:#fff}.cls-2,.cls-3{fill-rule:evenodd}.cls-3,.cls-4{fill:#294f92}</style></defs><circle cx="564" cy="1176" r="376" style="fill:url(#linear-gradient)"/><path id="S" class="cls-2" d="M864.908 1039.92q-18.432-4.02-46.922-7.48a488.859 488.859 0 0 0-59.014-3.46 377.378 377.378 0 0 0-61.316 4.89q-29.659 4.905-52.392 17.85a101.844 101.844 0 0 0-36.56 35.12q-13.816 22.17-13.817 57.29a77.866 77.866 0 0 0 8.924 36.27 166.8 166.8 0 0 0 22.741 33.11q13.818 15.84 29.363 30.51t29.363 28.21a183.123 183.123 0 0 1 22.741 26.48q8.92 12.96 8.924 25.05 0 10.95-4.318 17.27a29.039 29.039 0 0 1-11.227 9.79 49.787 49.787 0 0 1-16.12 4.61 152.737 152.737 0 0 1-19 1.15 288.656 288.656 0 0 1-56.134-5.19q-26.205-5.175-50.377-12.09l-15.545 70.82q20.726 6.915 49.8 11.52 29.065 4.59 65.346 4.6 36.838 0 66.5-6.62t50.377-21.01a95.889 95.889 0 0 0 31.954-37.43q11.228-23.01 11.227-55.84a82.555 82.555 0 0 0-9.5-38.87 169.035 169.035 0 0 0-23.6-33.97 283.835 283.835 0 0 0-30.8-29.65q-16.706-13.815-30.8-26.48a227.3 227.3 0 0 1-23.605-24.18q-9.5-11.505-9.5-22.45t5.757-17.28a35.2 35.2 0 0 1 15.257-9.5 81.026 81.026 0 0 1 21.591-3.74q12.09-.57 24.181-.57a320.993 320.993 0 0 1 45.771 3.74q25.611 3.75 45.2 7.19Z"/><path id="f" class="cls-2" d="m373.763 1020.45-14.393 65.64h40.3l-35.694 165.81a242.873 242.873 0 0 1-9.788 33.68 150.085 150.085 0 0 1-15.257 29.65 188.9 188.9 0 0 1-22.742 27.92 273.506 273.506 0 0 1-30.265 26.3 350.415 350.415 0 0 0 42.92 49.95q55.031-31.53 86.372-69.91 34.545-42.315 46.635-98.17l36.272-165.23h69.664l14.394-65.64h-69.665l9.212-42.6q4.6-21.874 15.545-29.363A42.845 42.845 0 0 1 562.03 941a194.436 194.436 0 0 1 20.151 1.152q10.929 1.159 22.454 2.878l14.393-66.165a203.549 203.549 0 0 0-25.908-4.345 263.461 263.461 0 0 0-27.636-1.457q-54.123 0-92.406 26.3t-49.8 78.31l-9.212 42.773h-40.3Z"/><path id="Triangle_1" data-name="Triangle 1" class="cls-3" d="m1097.22 1067.57 49.16-260.362 65.72 125.837c97.64-44.839 209.23-81.8 328.83-215.1 16.06 22.247-71.87 224.06-262.3 342.915 30.43 58.27 60.36 115.13 60.36 115.13Z"/><path id="Triangle_1_copy" data-name="Triangle 1 copy" class="cls-3" d="m1055 310.413-49.2 260.329-65.788-125.82c-97.723 44.832-209.416 81.793-329.126 215.07-16.072-22.244 71.933-224.029 262.538-342.872a46145.43 46145.43 0 0 0-60.416-115.106Z"/><path class="cls-4" d="M1320 427h667v125h-667z"/><path id="Rectangle_1_copy" data-name="Rectangle 1 copy" class="cls-4" d="M1320 271h667v125h-667z"/><path id="Rectangle_1_copy_2" data-name="Rectangle 1 copy 2" class="cls-4" d="M1320 115h667v125h-667z"/><circle class="cls-5" cx="1920.5" cy="489.5" r="24.5"/><circle id="Ellipse_1_copy" data-name="Ellipse 1 copy" class="cls-5" cx="1920.5" cy="333.5" r="24.5"/><circle id="Ellipse_1_copy_2" data-name="Ellipse 1 copy 2" class="cls-5" cx="1920.5" cy="177.5" r="24.5"/></svg>