<svg id="SVG" xmlns="http://www.w3.org/2000/svg" width="1000" height="1000"><defs><linearGradient id="linear-gradient" x1="500" y1="1000" x2="500" gradientUnits="userSpaceOnUse"><stop offset="0" stop-color="#1e3c72"/><stop offset="1" stop-color="#2a5298"/></linearGradient><style>.cls-2{fill:#fff;fill-rule:evenodd}</style></defs><circle cx="500" cy="500" r="500" style="fill:url(#linear-gradient)"/><path id="S" class="cls-2" d="M900.144 319.043q-24.512-5.347-62.4-9.953a651.887 651.887 0 0 0-78.475-4.594A500.8 500.8 0 0 0 677.734 311q-39.441 6.513-69.67 23.734a135.368 135.368 0 0 0-48.617 46.7q-18.374 29.483-18.374 76.178a103.593 103.593 0 0 0 11.867 48.234 221.612 221.612 0 0 0 30.241 44.022q18.375 21.066 39.046 40.578t39.046 37.514a243.318 243.318 0 0 1 30.242 35.219q11.861 17.226 11.867 33.3 0 14.552-5.742 22.968a38.665 38.665 0 0 1-14.929 13.015 65.928 65.928 0 0 1-21.438 6.125 202.1 202.1 0 0 1-25.265 1.531 384.439 384.439 0 0 1-74.647-6.89q-34.846-6.891-66.991-16.078l-20.67 94.18q27.563 9.188 66.225 15.312t86.9 6.125q48.987 0 88.428-8.8 39.423-8.793 66.991-27.945a127.507 127.507 0 0 0 42.491-49.765q14.929-30.612 14.93-74.264a109.746 109.746 0 0 0-12.633-51.679 224.472 224.472 0 0 0-31.39-45.171 376.142 376.142 0 0 0-40.96-39.429q-22.215-18.374-40.96-35.218a301.711 301.711 0 0 1-31.39-32.155q-12.632-15.31-12.632-29.863 0-14.535 7.656-22.968 7.644-8.416 20.289-12.633a107.306 107.306 0 0 1 28.71-4.976q16.078-.754 32.156-.766 26.79 0 60.866 4.976 34.058 4.989 60.1 9.571Z"/><path id="f" class="cls-2" d="m247.025 293.155-19.14 87.279h53.593L234.01 600.93A322.775 322.775 0 0 1 221 645.718a199.36 199.36 0 0 1-20.289 39.429 251.423 251.423 0 0 1-30.242 37.132 362.713 362.713 0 0 1-40.246 34.964c17.619 24.426 33.639 43.656 57.075 66.422q73.178-41.922 114.856-92.964 45.938-56.273 62.015-130.537l48.231-219.73h92.639l19.14-87.279h-92.641l12.249-56.655q6.12-29.086 20.672-39.046a56.977 56.977 0 0 1 32.921-9.954 258.6 258.6 0 0 1 26.8 1.532q14.535 1.542 29.859 3.828l19.14-87.986a270.512 270.512 0 0 0-34.456-5.774 350.16 350.16 0 0 0-36.749-1.938q-71.974 0-122.881 34.979-50.925 34.973-66.225 104.135l-12.25 56.883h-53.593Z"/></svg>